Lobster Thai-Regular.ufo
<glyph name="quotesingle" format="1">
  <advance width="401"/>
  <unicode hex="0027"/>
  <outline>
    <contour>
      <point x="164" y="1065" type="line"/>
      <point x="307" y="1065" type="line"/>
      <point x="532" y="1540" type="line"/>
      <point x="317" y="1540" type="line"/>
    </contour>
  </outline>
</glyph>
<glyph name="grave" format="1">
  <advance width="412"/>
  <unicode hex="0060"/>
  <outline>
    <contour>
      <point x="211" y="1149" type="line"/>
      <point x="324" y="1149" type="line"/>
      <point x="264" y="1536" type="line"/>
      <point x="49" y="1536" type="line"/>
    </contour>
  </outline>
</glyph>
<glyph name="cent" format="1">
  <advance width="786"/>
  <unicode hex="00A2"/>
  <outline>
    <contour>
      <point x="322" y="-55" type="line"/>
      <point x="379" y="194" type="line"/>
      <point x="388" y="193"/>
      <point x="398" y="193"/>
      <point x="408" y="193" type="curve" smooth="yes"/>
      <point x="584" y="193"/>
      <point x="698" y="270"/>
      <point x="698" y="391" type="curve" smooth="yes"/>
      <point x="698" y="416"/>
      <point x="694" y="440"/>
      <point x="682" y="471" type="curve"/>
      <point x="618" y="401"/>
      <point x="555" y="371"/>
      <point x="469" y="371" type="curve" smooth="yes"/>
      <point x="451" y="371"/>
      <point x="435" y="372"/>
      <point x="420" y="374" type="curve"/>
      <point x="595" y="1137" type="line"/>
      <point x="647" y="1136"/>
      <point x="672" y="1113"/>
      <point x="672" y="1061" type="curve" smooth="yes"/>
      <point x="672" y="1018"/>
      <point x="657" y="961"/>
      <point x="637" y="928" type="curve"/>
      <point x="657" y="901"/>
      <point x="692" y="883"/>
      <point x="729" y="883" type="curve" smooth="yes"/>
      <point x="803" y="883"/>
      <point x="858" y="956"/>
      <point x="858" y="1051" type="curve" smooth="yes"/>
      <point x="858" y="1167"/>
      <point x="769" y="1240"/>
      <point x="620" y="1245" type="curve"/>
      <point x="672" y="1470" type="line"/>
      <point x="567" y="1470" type="line"/>
      <point x="514" y="1236" type="line"/>
      <point x="238" y="1186"/>
      <point x="16" y="914"/>
      <point x="16" y="600" type="curve" smooth="yes"/>
      <point x="16" y="392"/>
      <point x="112" y="254"/>
      <point x="279" y="209" type="curve"/>
      <point x="219" y="-55" type="line"/>
    </contour>
    <contour>
      <point x="260" y="839"/>
      <point x="356" y="1032"/>
      <point x="484" y="1106" type="curve"/>
      <point x="326" y="415" type="line"/>
      <point x="281" y="456"/>
      <point x="260" y="524"/>
      <point x="260" y="625" type="curve" smooth="yes"/>
    </contour>
  </outline>
</glyph>
<glyph name="onequarter" format="1">
  <advance width="1499"/>
  <unicode hex="00BC"/>
  <outline>
    <contour>
      <point x="1135" y="303" type="line"/>
      <point x="1069" y="0" type="line"/>
      <point x="1247" y="0" type="line"/>
      <point x="1311" y="303" type="line"/>
      <point x="1384" y="303" type="line"/>
      <point x="1407" y="393" type="line"/>
      <point x="1329" y="393" type="line"/>
      <point x="1427" y="846" type="line"/>
      <point x="1245" y="823" type="line"/>
      <point x="1153" y="393" type="line"/>
      <point x="975" y="393" type="line"/>
      <point x="973" y="399" type="line"/>
      <point x="1077" y="506"/>
      <point x="1149" y="639"/>
      <point x="1149" y="735" type="curve" smooth="yes"/>
      <point x="1149" y="811"/>
      <point x="1110" y="858"/>
      <point x="1042" y="858" type="curve" smooth="yes"/>
      <point x="1020" y="858"/>
      <point x="993" y="856"/>
      <point x="971" y="852" type="curve"/>
      <point x="979" y="819"/>
      <point x="987" y="786"/>
      <point x="987" y="745" type="curve" smooth="yes"/>
      <point x="987" y="623"/>
      <point x="938" y="489"/>
      <point x="829" y="311" type="curve"/>
      <point x="831" y="303" type="line"/>
    </contour>
    <contour>
      <point x="1185" y="1540" type="line"/>
      <point x="1038" y="1540" type="line"/>
      <point x="186" y="0" type="line"/>
      <point x="333" y="0" type="line"/>
    </contour>
    <contour>
      <point x="558" y="1559" type="line"/>
      <point x="551" y="1563" type="line"/>
      <point x="441" y="1507"/>
      <point x="324" y="1475"/>
      <point x="215" y="1475" type="curve"/>
      <point x="211" y="1462"/>
      <point x="209" y="1452"/>
      <point x="209" y="1442" type="curve" smooth="yes"/>
      <point x="209" y="1403"/>
      <point x="234" y="1378"/>
      <point x="283" y="1378" type="curve" smooth="yes"/>
      <point x="299" y="1378"/>
      <point x="322" y="1382"/>
      <point x="345" y="1389" type="curve"/>
      <point x="201" y="705" type="line"/>
      <point x="375" y="705" type="line"/>
    </contour>
  </outline>
</glyph>
<glyph name="eth" format="1">
  <advance width="1102"/>
  <unicode hex="00F0"/>
  <outline>
    <contour>
      <point x="1137" y="1336" type="line"/>
      <point x="1110" y="1449" type="line"/>
      <point x="884" y="1385" type="line"/>
      <point x="849" y="1439"/>
      <point x="806" y="1490"/>
      <point x="753" y="1537" type="curve"/>
      <point x="576" y="1470" type="line"/>
      <point x="618" y="1420"/>
      <point x="648" y="1372"/>
      <point x="670" y="1324" type="curve"/>
      <point x="431" y="1257" type="line"/>
      <point x="455" y="1152" type="line"/>
      <point x="703" y="1219" type="line"/>
      <point x="721" y="1126"/>
      <point x="713" y="1029"/>
      <point x="697" y="918" type="curve"/>
      <point x="697" y="989"/>
      <point x="641" y="1034"/>
      <point x="524" y="1034" type="curve" smooth="yes"/>
      <point x="168" y="1034"/>
      <point x="-2" y="596"/>
      <point x="-2" y="317" type="curve" smooth="yes"/>
      <point x="-2" y="74"/>
      <point x="131" y="-12"/>
      <point x="270" y="-12" type="curve" smooth="yes"/>
      <point x="416" y="-12"/>
      <point x="514" y="84"/>
      <point x="575" y="178" type="curve"/>
      <point x="592" y="61"/>
      <point x="664" y="0"/>
      <point x="776" y="0" type="curve" smooth="yes"/>
      <point x="885" y="0"/>
      <point x="1073" y="33"/>
      <point x="1188" y="367" type="curve"/>
      <point x="1102" y="367" type="line"/>
      <point x="1071" y="262"/>
      <point x="1016" y="186"/>
      <point x="936" y="186" type="curve" smooth="yes"/>
      <point x="879" y="186"/>
      <point x="852" y="205"/>
      <point x="852" y="262" type="curve" smooth="yes"/>
      <point x="852" y="283"/>
      <point x="854" y="305"/>
      <point x="860" y="328" type="curve"/>
      <point x="964" y="810" type="line" smooth="yes"/>
      <point x="1001" y="980"/>
      <point x="994" y="1141"/>
      <point x="937" y="1282" type="curve"/>
    </contour>
    <contour>
      <point x="573" y="367" type="line" smooth="yes"/>
      <point x="547" y="246"/>
      <point x="465" y="186"/>
      <point x="403" y="186" type="curve" smooth="yes"/>
      <point x="367" y="186"/>
      <point x="301" y="190"/>
      <point x="301" y="346" type="curve" smooth="yes"/>
      <point x="301" y="539"/>
      <point x="414" y="907"/>
      <point x="588" y="907" type="curve" smooth="yes"/>
      <point x="653" y="907"/>
      <point x="672" y="852"/>
      <point x="672" y="829" type="curve"/>
    </contour>
  </outline>
</glyph>
<glyph name="uni015E" format="1">
  <advance width="1167"/>
  <unicode hex="015E"/>
  <outline>
    <contour>
      <point x="765" y="-168"/>
      <point x="708" y="-115"/>
      <point x="618" y="-115" type="curve" smooth="yes"/>
      <point x="591" y="-115"/>
      <point x="565" y="-119"/>
      <point x="509" y="-135" type="curve"/>
      <point x="549" y="-35" type="line"/>
      <point x="837" y="-16"/>
      <point x="1052" y="177"/>
      <point x="1052" y="431" type="curve" smooth="yes"/>
      <point x="1052" y="812"/>
      <point x="604" y="970"/>
      <point x="604" y="1241" type="curve" smooth="yes"/>
      <point x="604" y="1362"/>
      <point x="680" y="1448"/>
      <point x="790" y="1448" type="curve" smooth="yes"/>
      <point x="880" y="1448"/>
      <point x="936" y="1393"/>
      <point x="936" y="1305" type="curve" smooth="yes"/>
      <point x="936" y="1235"/>
      <point x="903" y="1168"/>
      <point x="852" y="1131" type="curve"/>
      <point x="882" y="1090"/>
      <point x="925" y="1067"/>
      <point x="977" y="1067" type="curve" smooth="yes"/>
      <point x="1069" y="1067"/>
      <point x="1132" y="1145"/>
      <point x="1132" y="1260" type="curve" smooth="yes"/>
      <point x="1132" y="1434"/>
      <point x="989" y="1547"/>
      <point x="768" y="1547" type="curve" smooth="yes"/>
      <point x="504" y="1547"/>
      <point x="309" y="1387"/>
      <point x="309" y="1172" type="curve" smooth="yes"/>
      <point x="309" y="854"/>
      <point x="745" y="660"/>
      <point x="745" y="362" type="curve" smooth="yes"/>
      <point x="745" y="215"/>
      <point x="639" y="106"/>
      <point x="495" y="106" type="curve" smooth="yes"/>
      <point x="377" y="106"/>
      <point x="301" y="182"/>
      <point x="301" y="301" type="curve" smooth="yes"/>
      <point x="301" y="428"/>
      <point x="391" y="510"/>
      <point x="534" y="510" type="curve"/>
      <point x="518" y="594"/>
      <point x="448" y="645"/>
      <point x="352" y="645" type="curve" smooth="yes"/>
      <point x="194" y="645"/>
      <point x="69" y="504"/>
      <point x="69" y="322" type="curve" smooth="yes"/>
      <point x="69" y="117"/>
      <point x="223" y="-21"/>
      <point x="459" y="-36" type="curve"/>
      <point x="380" y="-236" type="line"/>
      <point x="389" y="-244" type="line"/>
      <point x="421" y="-227"/>
      <point x="458" y="-219"/>
      <point x="489" y="-219" type="curve" smooth="yes"/>
      <point x="542" y="-219"/>
      <point x="575" y="-248"/>
      <point x="575" y="-291" type="curve" smooth="yes"/>
      <point x="575" y="-340"/>
      <point x="532" y="-375"/>
      <point x="473" y="-375" type="curve" smooth="yes"/>
      <point x="421" y="-375"/>
      <point x="364" y="-350"/>
      <point x="325" y="-313" type="curve"/>
      <point x="290" y="-369" type="line"/>
      <point x="337" y="-428"/>
      <point x="413" y="-463"/>
      <point x="495" y="-463" type="curve" smooth="yes"/>
      <point x="642" y="-463"/>
      <point x="765" y="-367"/>
      <point x="765" y="-250" type="curve" smooth="yes"/>
    </contour>
  </outline>
</glyph>
<glyph name="uogonek" format="1">
  <advance width="1034"/>
  <unicode hex="0173"/>
  <outline>
    <contour>
      <point x="1034" y="367" type="line"/>
      <point x="1004" y="262"/>
      <point x="948" y="186"/>
      <point x="868" y="186" type="curve" smooth="yes"/>
      <point x="811" y="186"/>
      <point x="784" y="205"/>
      <point x="784" y="262" type="curve" smooth="yes"/>
      <point x="784" y="283"/>
      <point x="786" y="305"/>
      <point x="793" y="328" type="curve"/>
      <point x="940" y="1024" type="line"/>
      <point x="645" y="1024" type="line"/>
      <point x="506" y="367" type="line"/>
      <point x="475" y="262"/>
      <point x="422" y="186"/>
      <point x="342" y="186" type="curve" smooth="yes"/>
      <point x="295" y="186"/>
      <point x="281" y="223"/>
      <point x="281" y="270" type="curve" smooth="yes"/>
      <point x="281" y="289"/>
      <point x="283" y="307"/>
      <point x="287" y="328" type="curve" smooth="yes"/>
      <point x="434" y="1024" type="line"/>
      <point x="139" y="1024" type="line"/>
      <point x="0" y="367" type="line" smooth="yes"/>
      <point x="-10" y="315"/>
      <point x="-16" y="270"/>
      <point x="-16" y="233" type="curve" smooth="yes"/>
      <point x="-16" y="61"/>
      <point x="80" y="-12"/>
      <point x="203" y="-12" type="curve" smooth="yes"/>
      <point x="289" y="-12"/>
      <point x="403" y="14"/>
      <point x="506" y="182" type="curve"/>
      <point x="517" y="78"/>
      <point x="566" y="15"/>
      <point x="646" y="-4" type="curve"/>
      <point x="550" y="-74"/>
      <point x="501" y="-155"/>
      <point x="501" y="-248" type="curve" smooth="yes"/>
      <point x="501" y="-358"/>
      <point x="587" y="-438"/>
      <point x="704" y="-438" type="curve" smooth="yes"/>
      <point x="808" y="-438"/>
      <point x="923" y="-367"/>
      <point x="966" y="-272" type="curve"/>
      <point x="931" y="-225" type="line"/>
      <point x="886" y="-276"/>
      <point x="835" y="-305"/>
      <point x="784" y="-305" type="curve" smooth="yes"/>
      <point x="716" y="-305"/>
      <point x="671" y="-256"/>
      <point x="671" y="-180" type="curve" smooth="yes"/>
      <point x="671" y="-112"/>
      <point x="699" y="-51"/>
      <point x="745" y="-10" type="curve"/>
      <point x="855" y="0"/>
      <point x="1018" y="67"/>
      <point x="1120" y="367" type="curve"/>
    </contour>
  </outline>
</glyph>
<glyph name="aringacute" format="1">
  <advance width="1077"/>
  <unicode hex="01FB"/>
  <outline>
    <contour>
      <point x="1077" y="367" type="line"/>
      <point x="1047" y="262"/>
      <point x="991" y="174"/>
      <point x="911" y="174" type="curve" smooth="yes"/>
      <point x="856" y="174"/>
      <point x="827" y="203"/>
      <point x="827" y="262" type="curve" smooth="yes"/>
      <point x="827" y="283"/>
      <point x="829" y="305"/>
      <point x="836" y="328" type="curve"/>
      <point x="983" y="1024" type="line"/>
      <point x="688" y="1024" type="line"/>
      <point x="666" y="915" type="line"/>
      <point x="666" y="930" type="line" smooth="yes"/>
      <point x="666" y="989"/>
      <point x="616" y="1034"/>
      <point x="500" y="1034" type="curve" smooth="yes"/>
      <point x="143" y="1034"/>
      <point x="-27" y="596"/>
      <point x="-27" y="317" type="curve" smooth="yes"/>
      <point x="-27" y="74"/>
      <point x="106" y="-12"/>
      <point x="246" y="-12" type="curve" smooth="yes"/>
      <point x="393" y="-12"/>
      <point x="485" y="84"/>
      <point x="551" y="176" type="curve"/>
      <point x="565" y="53"/>
      <point x="637" y="-12"/>
      <point x="752" y="-12" type="curve" smooth="yes"/>
      <point x="860" y="-12"/>
      <point x="1049" y="33"/>
      <point x="1163" y="367" type="curve"/>
    </contour>
    <contour>
      <point x="549" y="367" type="line" smooth="yes"/>
      <point x="522" y="246"/>
      <point x="440" y="186"/>
      <point x="379" y="186" type="curve" smooth="yes"/>
      <point x="342" y="186"/>
      <point x="276" y="190"/>
      <point x="276" y="346" type="curve" smooth="yes"/>
      <point x="276" y="539"/>
      <point x="389" y="907"/>
      <point x="563" y="907" type="curve" smooth="yes"/>
      <point x="629" y="907"/>
      <point x="647" y="854"/>
      <point x="647" y="829" type="curve"/>
    </contour>
    <contour>
      <point x="801" y="1352"/>
      <point x="786" y="1395"/>
      <point x="756" y="1423" type="curve"/>
      <point x="913" y="1656" type="line"/>
      <point x="728" y="1656" type="line"/>
      <point x="633" y="1459" type="line"/>
      <point x="524" y="1448"/>
      <point x="479" y="1344"/>
      <point x="479" y="1274" type="curve" smooth="yes"/>
      <point x="479" y="1194"/>
      <point x="535" y="1130"/>
      <point x="623" y="1130" type="curve" smooth="yes"/>
      <point x="752" y="1130"/>
      <point x="801" y="1212"/>
      <point x="801" y="1303" type="curve" smooth="yes"/>
    </contour>
    <contour>
      <point x="725" y="1239"/>
      <point x="694" y="1202"/>
      <point x="631" y="1202" type="curve" smooth="yes"/>
      <point x="582" y="1202"/>
      <point x="561" y="1231"/>
      <point x="561" y="1278" type="curve" smooth="yes"/>
      <point x="561" y="1329"/>
      <point x="586" y="1393"/>
      <point x="657" y="1393" type="curve" smooth="yes"/>
      <point x="723" y="1393"/>
      <point x="725" y="1337"/>
      <point x="725" y="1296" type="curve" smooth="yes"/>
    </contour>
  </outline>
</glyph>
<glyph name="apostrophe" format="1">
  <advance width="487"/>
  <unicode hex="02BC"/>
  <outline>
    <contour>
      <point x="176" y="1372"/>
      <point x="258" y="1350"/>
      <point x="258" y="1290" type="curve" smooth="yes"/>
      <point x="258" y="1262"/>
      <point x="240" y="1231"/>
      <point x="180" y="1165" type="curve"/>
      <point x="227" y="1118" type="line"/>
      <point x="344" y="1194"/>
      <point x="426" y="1325"/>
      <point x="426" y="1432" type="curve" smooth="yes"/>
      <point x="426" y="1511"/>
      <point x="377" y="1563"/>
      <point x="303" y="1563" type="curve" smooth="yes"/>
      <point x="229" y="1563"/>
      <point x="176" y="1516"/>
      <point x="176" y="1450" type="curve" smooth="yes"/>
    </contour>
  </outline>
</glyph>
<glyph name="khoKhuat-thai" format="1">
  <advance width="1056"/>
  <unicode hex="0E03"/>
  <outline>
    <contour>
      <point x="1086" y="1178" type="line"/>
      <point x="791" y="1178" type="line"/>
      <point x="599" y="274" type="line" smooth="yes"/>
      <point x="565" y="115"/>
      <point x="517" y="70"/>
      <point x="416" y="70" type="curve" smooth="yes"/>
      <point x="349" y="70"/>
      <point x="318" y="100"/>
      <point x="318" y="170" type="curve" smooth="yes"/>
      <point x="318" y="197"/>
      <point x="322" y="227"/>
      <point x="330" y="264" type="curve" smooth="yes"/>
      <point x="375" y="475" type="line" smooth="yes"/>
      <point x="425" y="707"/>
      <point x="703" y="709"/>
      <point x="705" y="1075" type="curve" smooth="yes"/>
      <point x="705" y="1153"/>
      <point x="666" y="1188"/>
      <point x="593" y="1188" type="curve" smooth="yes"/>
      <point x="507" y="1188"/>
      <point x="464" y="1161"/>
      <point x="418" y="1036" type="curve"/>
      <point x="408" y="1028"/>
      <point x="394" y="1022"/>
      <point x="382" y="1022" type="curve" smooth="yes"/>
      <point x="367" y="1022"/>
      <point x="357" y="1030"/>
      <point x="357" y="1053" type="curve" smooth="yes"/>
      <point x="357" y="1061"/>
      <point x="359" y="1069"/>
      <point x="361" y="1081" type="curve"/>
      <point x="384" y="1178" type="line"/>
      <point x="197" y="1178" type="line"/>
      <point x="183" y="1120" type="line" smooth="yes"/>
      <point x="165" y="1049"/>
      <point x="154" y="993"/>
      <point x="154" y="950" type="curve" smooth="yes"/>
      <point x="154" y="889"/>
      <point x="177" y="858"/>
      <point x="238" y="858" type="curve" smooth="yes"/>
      <point x="310" y="858"/>
      <point x="382" y="915"/>
      <point x="435" y="963" type="curve"/>
      <point x="443" y="954"/>
      <point x="447" y="946"/>
      <point x="447" y="932" type="curve" smooth="yes"/>
      <point x="447" y="854"/>
      <point x="144" y="760"/>
      <point x="91" y="518" type="curve" smooth="yes"/>
      <point x="56" y="358" type="line" smooth="yes"/>
      <point x="46" y="313"/>
      <point x="40" y="270"/>
      <point x="40" y="231" type="curve" smooth="yes"/>
      <point x="40" y="76"/>
      <point x="132" y="-27"/>
      <point x="408" y="-27" type="curve" smooth="yes"/>
      <point x="701" y="-27"/>
      <point x="850" y="66"/>
      <point x="887" y="242" type="curve" smooth="yes"/>
    </contour>
  </outline>
</glyph>
<glyph name="ngoNgu-thai" format="1">
  <advance width="997"/>
  <unicode hex="0E07"/>
  <outline>
    <contour>
      <point x="469" y="862"/>
      <point x="429" y="868"/>
      <point x="390" y="868" type="curve" smooth="yes"/>
      <point x="176" y="868"/>
      <point x="25" y="668"/>
      <point x="25" y="340" type="curve" smooth="yes"/>
      <point x="25" y="129"/>
      <point x="164" y="-27"/>
      <point x="353" y="-27" type="curve" smooth="yes"/>
      <point x="775" y="-27"/>
      <point x="955" y="373"/>
      <point x="955" y="819" type="curve" smooth="yes"/>
      <point x="955" y="1073"/>
      <point x="830" y="1188"/>
      <point x="584" y="1188" type="curve" smooth="yes"/>
      <point x="545" y="1188"/>
      <point x="496" y="1184"/>
      <point x="469" y="1178" type="curve"/>
      <point x="469" y="1178"/>
      <point x="441" y="1053"/>
      <point x="441" y="1053" type="curve"/>
      <point x="457" y="1059"/>
      <point x="478" y="1063"/>
      <point x="500" y="1063" type="curve" smooth="yes"/>
      <point x="623" y="1063"/>
      <point x="658" y="958"/>
      <point x="658" y="848" type="curve" smooth="yes"/>
      <point x="658" y="516"/>
      <point x="574" y="104"/>
      <point x="396" y="104" type="curve" smooth="yes"/>
      <point x="355" y="104"/>
      <point x="311" y="190"/>
      <point x="311" y="341" type="curve" smooth="yes"/>
      <point x="311" y="587"/>
      <point x="387" y="748"/>
      <point x="512" y="848" type="curve"/>
    </contour>
  </outline>
</glyph>
<glyph name="noNen-thai" format="1">
  <advance width="1582"/>
  <unicode hex="0E13"/>
  <outline>
    <contour>
      <point x="1581" y="303" type="line"/>
      <point x="1565" y="231"/>
      <point x="1532" y="172"/>
      <point x="1473" y="172" type="curve" smooth="yes"/>
      <point x="1419" y="172"/>
      <point x="1397" y="190"/>
      <point x="1397" y="248" type="curve" smooth="yes"/>
      <point x="1397" y="266"/>
      <point x="1399" y="287"/>
      <point x="1405" y="313" type="curve" smooth="yes"/>
      <point x="1587" y="1178" type="line"/>
      <point x="1293" y="1178" type="line"/>
      <point x="1118" y="352" type="line" smooth="yes"/>
      <point x="1096" y="248"/>
      <point x="1039" y="172"/>
      <point x="957" y="172" type="curve" smooth="yes"/>
      <point x="904" y="172"/>
      <point x="887" y="209"/>
      <point x="887" y="256" type="curve" smooth="yes"/>
      <point x="887" y="274"/>
      <point x="889" y="293"/>
      <point x="893" y="313" type="curve" smooth="yes"/>
      <point x="996" y="803" type="line" smooth="yes"/>
      <point x="1006" y="853"/>
      <point x="1013" y="899"/>
      <point x="1013" y="941" type="curve" smooth="yes"/>
      <point x="1013" y="1091"/>
      <point x="932" y="1188"/>
      <point x="654" y="1188" type="curve" smooth="yes"/>
      <point x="465" y="1188"/>
      <point x="307" y="1130"/>
      <point x="158" y="1042" type="curve"/>
      <point x="154" y="1024" type="line"/>
      <point x="169" y="992"/>
      <point x="177" y="952"/>
      <point x="177" y="910" type="curve" smooth="yes"/>
      <point x="177" y="888"/>
      <point x="175" y="866"/>
      <point x="170" y="844" type="curve" smooth="yes"/>
      <point x="51" y="285" type="line" smooth="yes"/>
      <point x="44" y="251"/>
      <point x="40" y="219"/>
      <point x="40" y="190" type="curve" smooth="yes"/>
      <point x="40" y="49"/>
      <point x="124" y="-27"/>
      <point x="271" y="-27" type="curve" smooth="yes"/>
      <point x="365" y="-27"/>
      <point x="430" y="-12"/>
      <point x="473" y="4" type="curve"/>
      <point x="498" y="118" type="line"/>
      <point x="476" y="108"/>
      <point x="437" y="98"/>
      <point x="396" y="98" type="curve" smooth="yes"/>
      <point x="348" y="98"/>
      <point x="328" y="121"/>
      <point x="328" y="166" type="curve" smooth="yes"/>
      <point x="328" y="183"/>
      <point x="331" y="202"/>
      <point x="336" y="225" type="curve" smooth="yes"/>
      <point x="459" y="811" type="line" smooth="yes"/>
      <point x="464" y="836"/>
      <point x="467" y="861"/>
      <point x="467" y="884" type="curve" smooth="yes"/>
      <point x="467" y="944"/>
      <point x="450" y="996"/>
      <point x="420" y="1040" type="curve"/>
      <point x="424" y="1059" type="line"/>
      <point x="475" y="1077"/>
      <point x="531" y="1092"/>
      <point x="613" y="1092" type="curve" smooth="yes"/>
      <point x="689" y="1092"/>
      <point x="727" y="1052"/>
      <point x="727" y="968" type="curve" smooth="yes"/>
      <point x="727" y="943"/>
      <point x="724" y="914"/>
      <point x="717" y="881" type="curve" smooth="yes"/>
      <point x="606" y="352" type="line" smooth="yes"/>
      <point x="598" y="313"/>
      <point x="593" y="274"/>
      <point x="593" y="235" type="curve" smooth="yes"/>
      <point x="593" y="95"/>
      <point x="653" y="-27"/>
      <point x="817" y="-27" type="curve" smooth="yes"/>
      <point x="922" y="-27"/>
      <point x="1012" y="0"/>
      <point x="1118" y="170" type="curve"/>
      <point x="1129" y="43"/>
      <point x="1204" y="-27"/>
      <point x="1321" y="-27" type="curve" smooth="yes"/>
      <point x="1442" y="-27"/>
      <point x="1594" y="6"/>
      <point x="1667" y="303" type="curve"/>
    </contour>
    <contour>
      <point x="1547" y="919" type="move" name="top"/>
    </contour>
    <contour>
      <point x="1411" y="0" type="move" name="bottom"/>
    </contour>
  </outline>
</glyph>
<glyph name="foFan-thai" format="1">
  <advance width="1235"/>
  <unicode hex="0E1F"/>
  <outline>
    <contour>
      <point x="1440" y="1536" type="line"/>
      <point x="1305" y="1536" type="line"/>
      <point x="965" y="342" type="line"/>
      <point x="993" y="1096" type="line"/>
      <point x="635" y="1096" type="line"/>
      <point x="389" y="344" type="line"/>
      <point x="375" y="1178" type="line"/>
      <point x="80" y="1178" type="line"/>
      <point x="108" y="0" type="line"/>
      <point x="393" y="0" type="line"/>
      <point x="704" y="961" type="line"/>
      <point x="684" y="0" type="line"/>
      <point x="969" y="0" type="line"/>
    </contour>
    <contour>
      <point x="1024" y="919" type="move" name="top"/>
    </contour>
    <contour>
      <point x="978" y="0" type="move" name="bottom"/>
    </contour>
  </outline>
</glyph>
<glyph name="moMa-thai" format="1">
  <advance width="1088"/>
  <unicode hex="0E21"/>
  <outline>
    <contour>
      <point x="1118" y="1178" type="line"/>
      <point x="823" y="1178" type="line"/>
      <point x="639" y="299" type="line" smooth="yes"/>
      <point x="619" y="205"/>
      <point x="588" y="172"/>
      <point x="502" y="172" type="curve" smooth="yes"/>
      <point x="433" y="172"/>
      <point x="365" y="229"/>
      <point x="365" y="315" type="curve" smooth="yes"/>
      <point x="365" y="327"/>
      <point x="366" y="339"/>
      <point x="369" y="352" type="curve" smooth="yes"/>
      <point x="543" y="1178" type="line"/>
      <point x="248" y="1178" type="line"/>
      <point x="0" y="0" type="line"/>
      <point x="295" y="0" type="line"/>
      <point x="330" y="170" type="line"/>
      <point x="387" y="35"/>
      <point x="510" y="-27"/>
      <point x="621" y="-27" type="curve" smooth="yes"/>
      <point x="805" y="-27"/>
      <point x="889" y="92"/>
      <point x="936" y="313" type="curve" smooth="yes"/>
    </contour>
  </outline>
</glyph>
<glyph name="oAng-thai" format="1">
  <advance width="1026"/>
  <unicode hex="0E2D"/>
  <outline>
    <contour>
      <point x="495" y="582" type="line"/>
      <point x="517" y="682" type="line"/>
      <point x="113" y="682" type="line"/>
      <point x="93" y="582" type="line"/>
    </contour>
    <contour>
      <point x="397" y="682" type="line"/>
      <point x="103" y="682" type="line"/>
      <point x="29" y="342" type="line" smooth="yes"/>
      <point x="17" y="285"/>
      <point x="10" y="236"/>
      <point x="10" y="193" type="curve" smooth="yes"/>
      <point x="10" y="43"/>
      <point x="159" y="-27"/>
      <point x="372" y="-27" type="curve" smooth="yes"/>
      <point x="794" y="-27"/>
      <point x="984" y="409"/>
      <point x="984" y="794" type="curve" smooth="yes"/>
      <point x="984" y="1052"/>
      <point x="832" y="1188"/>
      <point x="583" y="1188" type="curve" smooth="yes"/>
      <point x="420" y="1188"/>
      <point x="141" y="1152"/>
      <point x="141" y="936" type="curve" smooth="yes"/>
      <point x="141" y="849"/>
      <point x="210" y="797"/>
      <point x="297" y="797" type="curve" smooth="yes"/>
      <point x="334" y="797"/>
      <point x="357" y="808"/>
      <point x="381" y="829" type="curve"/>
      <point x="362" y="857"/>
      <point x="350" y="888"/>
      <point x="350" y="926" type="curve" smooth="yes"/>
      <point x="350" y="1009"/>
      <point x="420" y="1092"/>
      <point x="515" y="1092" type="curve" smooth="yes"/>
      <point x="627" y="1092"/>
      <point x="689" y="1023"/>
      <point x="689" y="810" type="curve" smooth="yes"/>
      <point x="689" y="427"/>
      <point x="549" y="98"/>
      <point x="364" y="98" type="curve" smooth="yes"/>
      <point x="317" y="98"/>
      <point x="294" y="131"/>
      <point x="294" y="170" type="curve" smooth="yes"/>
      <point x="294" y="197"/>
      <point x="300" y="226"/>
      <point x="305" y="248" type="curve" smooth="yes"/>
    </contour>
  </outline>
</glyph>
<glyph name="paiyannoi-thai" format="1">
  <advance width="810"/>
  <unicode hex="0E2F"/>
  <outline>
    <contour>
      <point x="840" y="1188" type="line"/>
      <point x="545" y="1188" type="line"/>
      <point x="492" y="931" type="line"/>
      <point x="465" y="904"/>
      <point x="427" y="890"/>
      <point x="390" y="890" type="curve" smooth="yes"/>
      <point x="333" y="890"/>
      <point x="280" y="934"/>
      <point x="280" y="1008" type="curve" smooth="yes"/>
      <point x="280" y="1057"/>
      <point x="303" y="1128"/>
      <point x="344" y="1188" type="curve"/>
      <point x="55" y="1188" type="line"/>
      <point x="27" y="1149"/>
      <point x="8" y="1092"/>
      <point x="8" y="1020" type="curve" smooth="yes"/>
      <point x="8" y="873"/>
      <point x="149" y="792"/>
      <point x="299" y="792" type="curve" smooth="yes"/>
      <point x="356" y="792"/>
      <point x="415" y="804"/>
      <point x="467" y="828" type="curve"/>
      <point x="291" y="0" type="line"/>
      <point x="586" y="0" type="line"/>
    </contour>
  </outline>
</glyph>
<glyph name="saraAm-thai" format="1">
  <advance width="847"/>
  <unicode hex="0E33"/>
  <outline>
    <contour>
      <point x="659" y="0" type="line"/>
      <point x="821" y="762" type="line" smooth="yes"/>
      <point x="832" y="814"/>
      <point x="837" y="860"/>
      <point x="837" y="901" type="curve" smooth="yes"/>
      <point x="837" y="1106"/>
      <point x="690" y="1188"/>
      <point x="474" y="1188" type="curve" smooth="yes"/>
      <point x="273" y="1188"/>
      <point x="82" y="1095"/>
      <point x="82" y="919" type="curve" smooth="yes"/>
      <point x="82" y="839"/>
      <point x="114" y="772"/>
      <point x="212" y="772" type="curve" smooth="yes"/>
      <point x="272" y="772"/>
      <point x="311" y="786"/>
      <point x="338" y="819" type="curve"/>
      <point x="309" y="850"/>
      <point x="291" y="887"/>
      <point x="291" y="932" type="curve" smooth="yes"/>
      <point x="291" y="1009"/>
      <point x="364" y="1092"/>
      <point x="440" y="1092" type="curve" smooth="yes"/>
      <point x="510" y="1092"/>
      <point x="557" y="1057"/>
      <point x="557" y="963" type="curve" smooth="yes"/>
      <point x="557" y="928"/>
      <point x="552" y="883"/>
      <point x="540" y="829" type="curve" smooth="yes"/>
      <point x="364" y="0" type="line"/>
    </contour>
    <contour>
      <point x="7" y="1440"/>
      <point x="-20" y="1405"/>
      <point x="-77" y="1405" type="curve" smooth="yes"/>
      <point x="-134" y="1405"/>
      <point x="-161" y="1440"/>
      <point x="-161" y="1482" type="curve" smooth="yes"/>
      <point x="-161" y="1524"/>
      <point x="-134" y="1559"/>
      <point x="-77" y="1559" type="curve" smooth="yes"/>
      <point x="-20" y="1559"/>
      <point x="7" y="1524"/>
      <point x="7" y="1482" type="curve" smooth="yes"/>
    </contour>
    <contour>
      <point x="139" y="1580"/>
      <point x="63" y="1655"/>
      <point x="-77" y="1655" type="curve" smooth="yes"/>
      <point x="-217" y="1655"/>
      <point x="-293" y="1580"/>
      <point x="-293" y="1482" type="curve" smooth="yes"/>
      <point x="-293" y="1384"/>
      <point x="-217" y="1309"/>
      <point x="-77" y="1309" type="curve" smooth="yes"/>
      <point x="63" y="1309"/>
      <point x="139" y="1384"/>
      <point x="139" y="1482" type="curve" smooth="yes"/>
    </contour>
  </outline>
</glyph>
<glyph name="saraI-thai" format="1">
  <advance width="0"/>
  <unicode hex="0E34"/>
  <outline>
    <contour>
      <point x="67" y="1342" type="line"/>
      <point x="97" y="1484" type="line"/>
      <point x="-698" y="1484" type="line"/>
      <point x="-728" y="1342" type="line"/>
    </contour>
    <contour>
      <point x="46" y="1230" type="move" name="top"/>
    </contour>
    <contour>
      <point x="0" y="919" type="move" name="_top"/>
    </contour>
  </outline>
</glyph>
<glyph name="saraU-thai" format="1">
  <advance width="0"/>
  <unicode hex="0E38"/>
  <outline>
    <contour>
      <point x="-278" y="-322" type="line" smooth="yes"/>
      <point x="-273" y="-296"/>
      <point x="-270" y="-273"/>
      <point x="-270" y="-253" type="curve" smooth="yes"/>
      <point x="-270" y="-133"/>
      <point x="-340" y="-107"/>
      <point x="-440" y="-107" type="curve" smooth="yes"/>
      <point x="-493" y="-107"/>
      <point x="-569" y="-120"/>
      <point x="-612" y="-142" type="curve"/>
      <point x="-637" y="-262" type="line"/>
      <point x="-568" y="-262"/>
      <point x="-543" y="-271"/>
      <point x="-543" y="-308" type="curve" smooth="yes"/>
      <point x="-543" y="-317"/>
      <point x="-544" y="-327"/>
      <point x="-547" y="-340" type="curve" smooth="yes"/>
      <point x="-590" y="-545" type="line"/>
      <point x="-325" y="-545" type="line"/>
    </contour>
    <contour>
      <point x="-201" y="0" type="move" name="_bottom"/>
    </contour>
    <contour>
      <point x="-326" y="-545" type="move" name="bottom"/>
    </contour>
  </outline>
</glyph>
<glyph name="saraUu-thai" format="1">
  <advance width="0"/>
  <unicode hex="0E39"/>
  <outline>
    <contour>
      <point x="-234" y="-124" type="line"/>
      <point x="-471" y="-124" type="line"/>
      <point x="-516" y="-346" type="line" smooth="yes"/>
      <point x="-522" y="-374"/>
      <point x="-548" y="-401"/>
      <point x="-581" y="-401" type="curve" smooth="yes"/>
      <point x="-650" y="-401" type="line"/>
      <point x="-641" y="-365" type="line"/>
      <point x="-636" y="-339"/>
      <point x="-629" y="-297"/>
      <point x="-629" y="-273" type="curve" smooth="yes"/>
      <point x="-629" y="-181"/>
      <point x="-669" y="-107"/>
      <point x="-780" y="-107" type="curve" smooth="yes"/>
      <point x="-829" y="-107"/>
      <point x="-887" y="-122"/>
      <point x="-939" y="-146" type="curve"/>
      <point x="-967" y="-280" type="line"/>
      <point x="-890" y="-280"/>
      <point x="-865" y="-308"/>
      <point x="-865" y="-349" type="curve" smooth="yes"/>
      <point x="-865" y="-359"/>
      <point x="-866" y="-370"/>
      <point x="-869" y="-385" type="curve" smooth="yes"/>
      <point x="-895" y="-520" type="line"/>
      <point x="-784" y="-540"/>
      <point x="-722" y="-559"/>
      <point x="-511" y="-559" type="curve" smooth="yes"/>
      <point x="-396" y="-559"/>
      <point x="-321" y="-530"/>
      <point x="-298" y="-423" type="curve" smooth="yes"/>
    </contour>
    <contour>
      <point x="-201" y="0" type="move" name="_bottom"/>
    </contour>
    <contour>
      <point x="-332" y="-559" type="move" name="bottom"/>
    </contour>
  </outline>
</glyph>
<glyph name="maiEk-thai" format="1">
  <advance width="0"/>
  <unicode hex="0E48"/>
  <outline>
    <contour>
      <point x="58" y="1342" type="line"/>
      <point x="130" y="1679" type="line"/>
      <point x="-133" y="1679" type="line"/>
      <point x="-206" y="1342" type="line"/>
    </contour>
    <contour>
      <point x="55" y="1395" type="move" name="top"/>
    </contour>
    <contour>
      <point x="0" y="919" type="move" name="_top"/>
    </contour>
  </outline>
</glyph>
<glyph name="maiTri-thai" format="1">
  <advance width="0"/>
  <unicode hex="0E4A"/>
  <outline>
    <contour>
      <point x="190" y="1342" type="line"/>
      <point x="221" y="1484" type="line"/>
      <point x="-10" y="1484" type="line"/>
      <point x="-4" y="1505"/>
      <point x="-3" y="1513"/>
      <point x="-3" y="1521" type="curve" smooth="yes"/>
      <point x="-3" y="1587"/>
      <point x="-55" y="1637"/>
      <point x="-151" y="1637" type="curve" smooth="yes"/>
      <point x="-215" y="1637"/>
      <point x="-290" y="1608"/>
      <point x="-326" y="1551" type="curve"/>
      <point x="-340" y="1601"/>
      <point x="-386" y="1637"/>
      <point x="-483" y="1637" type="curve" smooth="yes"/>
      <point x="-621" y="1637"/>
      <point x="-685" y="1536"/>
      <point x="-685" y="1443" type="curve" smooth="yes"/>
      <point x="-685" y="1348"/>
      <point x="-619" y="1320"/>
      <point x="-535" y="1320" type="curve" smooth="yes"/>
      <point x="-492" y="1320"/>
      <point x="-448" y="1327"/>
      <point x="-414" y="1337" type="curve"/>
      <point x="-398" y="1405" type="line"/>
      <point x="-411" y="1402"/>
      <point x="-422" y="1401"/>
      <point x="-432" y="1401" type="curve" smooth="yes"/>
      <point x="-476" y="1401"/>
      <point x="-496" y="1429"/>
      <point x="-496" y="1457" type="curve" smooth="yes"/>
      <point x="-496" y="1485"/>
      <point x="-476" y="1514"/>
      <point x="-441" y="1514" type="curve" smooth="yes"/>
      <point x="-403" y="1514"/>
      <point x="-374" y="1483"/>
      <point x="-374" y="1451" type="curve" smooth="yes"/>
      <point x="-374" y="1447"/>
      <point x="-374" y="1444"/>
      <point x="-375" y="1440" type="curve" smooth="yes"/>
      <point x="-377" y="1431" type="line"/>
      <point x="-319" y="1431" type="line"/>
      <point x="-308" y="1487"/>
      <point x="-274" y="1514"/>
      <point x="-246" y="1514" type="curve" smooth="yes"/>
      <point x="-222" y="1514"/>
      <point x="-214" y="1493"/>
      <point x="-214" y="1475" type="curve" smooth="yes"/>
      <point x="-214" y="1471"/>
      <point x="-214" y="1468"/>
      <point x="-215" y="1465" type="curve"/>
      <point x="-241" y="1342" type="line"/>
    </contour>
    <contour>
      <point x="-96" y="1372" type="move" name="top"/>
    </contour>
    <contour>
      <point x="0" y="919" type="move" name="_top"/>
    </contour>
  </outline>
</glyph>
<glyph name="nikhahit-thai" format="1">
  <advance width="0"/>
  <unicode hex="0E4D"/>
  <outline>
    <contour>
      <point x="17" y="1440"/>
      <point x="-10" y="1405"/>
      <point x="-67" y="1405" type="curve" smooth="yes"/>
      <point x="-124" y="1405"/>
      <point x="-151" y="1440"/>
      <point x="-151" y="1482" type="curve" smooth="yes"/>
      <point x="-151" y="1524"/>
      <point x="-124" y="1559"/>
      <point x="-67" y="1559" type="curve" smooth="yes"/>
      <point x="-10" y="1559"/>
      <point x="17" y="1524"/>
      <point x="17" y="1482" type="curve" smooth="yes"/>
    </contour>
    <contour>
      <point x="149" y="1580"/>
      <point x="73" y="1655"/>
      <point x="-67" y="1655" type="curve" smooth="yes"/>
      <point x="-207" y="1655"/>
      <point x="-283" y="1580"/>
      <point x="-283" y="1482" type="curve" smooth="yes"/>
      <point x="-283" y="1384"/>
      <point x="-207" y="1309"/>
      <point x="-67" y="1309" type="curve" smooth="yes"/>
      <point x="73" y="1309"/>
      <point x="149" y="1384"/>
      <point x="149" y="1482" type="curve" smooth="yes"/>
    </contour>
    <contour>
      <point x="0" y="1342" type="move" name="top"/>
    </contour>
    <contour>
      <point x="-1" y="919" type="move" name="_top"/>
    </contour>
  </outline>
</glyph>
<glyph name="eight-thai" format="1">
  <advance width="1277"/>
  <unicode hex="0E58"/>
  <outline>
    <contour>
      <point x="513" y="209" type="line" smooth="yes"/>
      <point x="501" y="155"/>
      <point x="451" y="114"/>
      <point x="415" y="114" type="curve" smooth="yes"/>
      <point x="360" y="114"/>
      <point x="325" y="208"/>
      <point x="325" y="337" type="curve" smooth="yes"/>
      <point x="325" y="718"/>
      <point x="573" y="836"/>
      <point x="809" y="836" type="curve" smooth="yes"/>
      <point x="860" y="836"/>
      <point x="936" y="829"/>
      <point x="1012" y="829" type="curve" smooth="yes"/>
      <point x="1159" y="829"/>
      <point x="1284" y="872"/>
      <point x="1284" y="978" type="curve" smooth="yes"/>
      <point x="1284" y="1019"/>
      <point x="1273" y="1090"/>
      <point x="1176" y="1146" type="curve"/>
      <point x="1123" y="1013"/>
      <point x="969" y="977"/>
      <point x="757" y="977" type="curve" smooth="yes"/>
      <point x="331" y="977"/>
      <point x="23" y="723"/>
      <point x="23" y="324" type="curve" smooth="yes"/>
      <point x="23" y="59"/>
      <point x="204" y="-27"/>
      <point x="328" y="-27" type="curve" smooth="yes"/>
      <point x="438" y="-27"/>
      <point x="537" y="8"/>
      <point x="588" y="104" type="curve"/>
      <point x="606" y="43"/>
      <point x="662" y="-27"/>
      <point x="786" y="-27" type="curve" smooth="yes"/>
      <point x="1066" y="-27"/>
      <point x="1178" y="165"/>
      <point x="1178" y="370" type="curve" smooth="yes"/>
      <point x="1178" y="478"/>
      <point x="1104" y="525"/>
      <point x="1015" y="525" type="curve" smooth="yes"/>
      <point x="928" y="525"/>
      <point x="861" y="465"/>
      <point x="861" y="385" type="curve" smooth="yes"/>
      <point x="861" y="322"/>
      <point x="901" y="258"/>
      <point x="971" y="258" type="curve"/>
      <point x="958" y="131"/>
      <point x="862" y="105"/>
      <point x="785" y="105" type="curve" smooth="yes"/>
      <point x="716" y="105"/>
      <point x="706" y="151"/>
      <point x="706" y="193" type="curve" smooth="yes"/>
      <point x="706" y="204"/>
      <point x="709" y="214"/>
      <point x="747" y="391" type="curve"/>
      <point x="553" y="391" type="line"/>
    </contour>
  </outline>
</glyph>
<glyph name="emdash" format="1">
  <advance width="909"/>
  <unicode hex="2014"/>
  <outline>
    <contour>
      <point x="758" y="455" type="line"/>
      <point x="793" y="616" type="line"/>
      <point x="76" y="616" type="line"/>
      <point x="39" y="455" type="line"/>
    </contour>
  </outline>
</glyph>
<glyph name="fraction" format="1">
  <advance width="999"/>
  <unicode hex="2044"/>
  <outline>
    <contour>
      <point x="999" y="1540" type="line"/>
      <point x="852" y="1540" type="line"/>
      <point x="0" y="0" type="line"/>
      <point x="147" y="0" type="line"/>
    </contour>
  </outline>
</glyph>
<glyph name="franc" format="1">
  <advance width="1083"/>
  <unicode hex="20A3"/>
  <outline>
    <contour>
      <point x="461" y="1497"/>
      <point x="442" y="1458"/>
      <point x="442" y="1419" type="curve" smooth="yes"/>
      <point x="442" y="1393"/>
      <point x="453" y="1366"/>
      <point x="471" y="1343" type="curve"/>
      <point x="475" y="1343" type="line"/>
      <point x="275" y="449" type="line"/>
      <point x="51" y="449" type="line"/>
      <point x="23" y="346" type="line"/>
      <point x="252" y="346" type="line"/>
      <point x="219" y="197" type="line" smooth="yes"/>
      <point x="203" y="123"/>
      <point x="190" y="35"/>
      <point x="190" y="20" type="curve" smooth="yes"/>
      <point x="190" y="2"/>
      <point x="199" y="-6"/>
      <point x="219" y="-6" type="curve" smooth="yes"/>
      <point x="233" y="-6"/>
      <point x="317" y="0"/>
      <point x="461" y="0" type="curve" smooth="yes"/>
      <point x="477" y="0"/>
      <point x="481" y="8"/>
      <point x="487" y="37" type="curve" smooth="yes"/>
      <point x="554" y="346" type="line"/>
      <point x="815" y="346" type="line"/>
      <point x="844" y="449" type="line"/>
      <point x="577" y="449" type="line"/>
      <point x="599" y="546"/>
      <point x="620" y="646"/>
      <point x="642" y="746" type="curve"/>
      <point x="719" y="748"/>
      <point x="805" y="750"/>
      <point x="879" y="750" type="curve" smooth="yes"/>
      <point x="930" y="750"/>
      <point x="952" y="811"/>
      <point x="952" y="866" type="curve" smooth="yes"/>
      <point x="952" y="885"/>
      <point x="950" y="905"/>
      <point x="946" y="922" type="curve"/>
      <point x="842" y="922"/>
      <point x="760" y="918"/>
      <point x="678" y="911" type="curve"/>
      <point x="711" y="1064"/>
      <point x="744" y="1214"/>
      <point x="773" y="1355" type="curve"/>
      <point x="941" y="1363"/>
      <point x="1115" y="1375"/>
      <point x="1130" y="1382" type="curve"/>
      <point x="1157" y="1393"/>
      <point x="1184" y="1456"/>
      <point x="1184" y="1493" type="curve" smooth="yes"/>
      <point x="1184" y="1509"/>
      <point x="1180" y="1524"/>
      <point x="1171" y="1528" type="curve"/>
      <point x="1069" y="1532"/>
      <point x="973" y="1534"/>
      <point x="881" y="1534" type="curve" smooth="yes"/>
      <point x="745" y="1534"/>
      <point x="623" y="1530"/>
      <point x="498" y="1524" type="curve"/>
    </contour>
  </outline>
</glyph>
<glyph name="oneeighth" format="1">
  <advance width="1499"/>
  <unicode hex="215B"/>
  <outline>
    <contour>
      <point x="813" y="80"/>
      <point x="922" y="-12"/>
      <point x="1078" y="-12" type="curve" smooth="yes"/>
      <point x="1250" y="-12"/>
      <point x="1387" y="104"/>
      <point x="1387" y="248" type="curve" smooth="yes"/>
      <point x="1387" y="354"/>
      <point x="1312" y="426"/>
      <point x="1242" y="493" type="curve"/>
      <point x="1357" y="551"/>
      <point x="1416" y="617"/>
      <point x="1416" y="692" type="curve" smooth="yes"/>
      <point x="1416" y="784"/>
      <point x="1321" y="854"/>
      <point x="1192" y="854" type="curve" smooth="yes"/>
      <point x="1047" y="854"/>
      <point x="936" y="764"/>
      <point x="936" y="649" type="curve" smooth="yes"/>
      <point x="936" y="574"/>
      <point x="982" y="513"/>
      <point x="1036" y="455" type="curve"/>
      <point x="884" y="392"/>
      <point x="813" y="314"/>
      <point x="813" y="209" type="curve" smooth="yes"/>
    </contour>
    <contour>
      <point x="1198" y="129"/>
      <point x="1145" y="68"/>
      <point x="1080" y="68" type="curve" smooth="yes"/>
      <point x="1016" y="68"/>
      <point x="973" y="123"/>
      <point x="973" y="205" type="curve" smooth="yes"/>
      <point x="973" y="285"/>
      <point x="1013" y="358"/>
      <point x="1083" y="406" type="curve"/>
      <point x="1143" y="344"/>
      <point x="1198" y="282"/>
      <point x="1198" y="205" type="curve" smooth="yes"/>
    </contour>
    <contour>
      <point x="1117" y="752"/>
      <point x="1157" y="799"/>
      <point x="1211" y="799" type="curve" smooth="yes"/>
      <point x="1256" y="799"/>
      <point x="1284" y="766"/>
      <point x="1284" y="713" type="curve" smooth="yes"/>
      <point x="1284" y="655"/>
      <point x="1249" y="588"/>
      <point x="1194" y="539" type="curve"/>
      <point x="1151" y="584"/>
      <point x="1117" y="630"/>
      <point x="1117" y="688" type="curve" smooth="yes"/>
    </contour>
    <contour>
      <point x="1187" y="1540" type="line"/>
      <point x="1040" y="1540" type="line"/>
      <point x="188" y="0" type="line"/>
      <point x="335" y="0" type="line"/>
    </contour>
    <contour>
      <point x="551" y="1559" type="line"/>
      <point x="544" y="1563" type="line"/>
      <point x="434" y="1507"/>
      <point x="317" y="1475"/>
      <point x="208" y="1475" type="curve"/>
      <point x="204" y="1462"/>
      <point x="202" y="1452"/>
      <point x="202" y="1442" type="curve" smooth="yes"/>
      <point x="202" y="1403"/>
      <point x="227" y="1378"/>
      <point x="276" y="1378" type="curve" smooth="yes"/>
      <point x="292" y="1378"/>
      <point x="315" y="1382"/>
      <point x="338" y="1389" type="curve"/>
      <point x="194" y="705" type="line"/>
      <point x="368" y="705" type="line"/>
    </contour>
  </outline>
</glyph>
<glyph name="threeeighths" format="1">
  <advance width="1499"/>
  <unicode hex="215C"/>
  <outline>
    <contour>
      <point x="274" y="1055"/>
      <point x="250" y="1073"/>
      <point x="211" y="1073" type="curve" smooth="yes"/>
      <point x="129" y="1073"/>
      <point x="71" y="1006"/>
      <point x="71" y="911" type="curve" smooth="yes"/>
      <point x="71" y="784"/>
      <point x="168" y="696"/>
      <point x="305" y="696" type="curve" smooth="yes"/>
      <point x="475" y="696"/>
      <point x="622" y="825"/>
      <point x="622" y="973" type="curve" smooth="yes"/>
      <point x="622" y="1073"/>
      <point x="555" y="1149"/>
      <point x="448" y="1171" type="curve"/>
      <point x="448" y="1180" type="line"/>
      <point x="563" y="1212"/>
      <point x="637" y="1288"/>
      <point x="637" y="1380" type="curve" smooth="yes"/>
      <point x="637" y="1485"/>
      <point x="544" y="1563"/>
      <point x="415" y="1563" type="curve" smooth="yes"/>
      <point x="282" y="1563"/>
      <point x="172" y="1479"/>
      <point x="172" y="1378" type="curve" smooth="yes"/>
      <point x="172" y="1317"/>
      <point x="213" y="1276"/>
      <point x="272" y="1276" type="curve" smooth="yes"/>
      <point x="301" y="1276"/>
      <point x="329" y="1290"/>
      <point x="360" y="1315" type="curve"/>
      <point x="358" y="1321" type="line"/>
      <point x="327" y="1335"/>
      <point x="311" y="1366"/>
      <point x="311" y="1409" type="curve" smooth="yes"/>
      <point x="311" y="1462"/>
      <point x="344" y="1503"/>
      <point x="391" y="1503" type="curve" smooth="yes"/>
      <point x="440" y="1503"/>
      <point x="471" y="1460"/>
      <point x="471" y="1393" type="curve" smooth="yes"/>
      <point x="471" y="1294"/>
      <point x="399" y="1212"/>
      <point x="288" y="1178" type="curve"/>
      <point x="288" y="1169" type="line"/>
      <point x="377" y="1157"/>
      <point x="428" y="1083"/>
      <point x="428" y="969" type="curve" smooth="yes"/>
      <point x="428" y="854"/>
      <point x="372" y="774"/>
      <point x="295" y="774" type="curve" smooth="yes"/>
      <point x="243" y="774"/>
      <point x="207" y="819"/>
      <point x="207" y="883" type="curve" smooth="yes"/>
      <point x="207" y="944"/>
      <point x="239" y="989"/>
      <point x="295" y="1004" type="curve"/>
    </contour>
    <contour>
      <point x="1261" y="1540" type="line"/>
      <point x="1114" y="1540" type="line"/>
      <point x="262" y="0" type="line"/>
      <point x="409" y="0" type="line"/>
    </contour>
    <contour>
      <point x="813" y="80"/>
      <point x="922" y="-12"/>
      <point x="1078" y="-12" type="curve" smooth="yes"/>
      <point x="1250" y="-12"/>
      <point x="1387" y="104"/>
      <point x="1387" y="248" type="curve" smooth="yes"/>
      <point x="1387" y="354"/>
      <point x="1312" y="426"/>
      <point x="1242" y="493" type="curve"/>
      <point x="1357" y="551"/>
      <point x="1416" y="617"/>
      <point x="1416" y="692" type="curve" smooth="yes"/>
      <point x="1416" y="784"/>
      <point x="1321" y="854"/>
      <point x="1192" y="854" type="curve" smooth="yes"/>
      <point x="1047" y="854"/>
      <point x="936" y="764"/>
      <point x="936" y="649" type="curve" smooth="yes"/>
      <point x="936" y="574"/>
      <point x="982" y="513"/>
      <point x="1036" y="455" type="curve"/>
      <point x="884" y="392"/>
      <point x="813" y="314"/>
      <point x="813" y="209" type="curve" smooth="yes"/>
    </contour>
    <contour>
      <point x="1198" y="129"/>
      <point x="1145" y="68"/>
      <point x="1080" y="68" type="curve" smooth="yes"/>
      <point x="1016" y="68"/>
      <point x="973" y="123"/>
      <point x="973" y="205" type="curve" smooth="yes"/>
      <point x="973" y="285"/>
      <point x="1013" y="358"/>
      <point x="1083" y="406" type="curve"/>
      <point x="1143" y="344"/>
      <point x="1198" y="282"/>
      <point x="1198" y="205" type="curve" smooth="yes"/>
    </contour>
    <contour>
      <point x="1117" y="752"/>
      <point x="1157" y="799"/>
      <point x="1211" y="799" type="curve" smooth="yes"/>
      <point x="1256" y="799"/>
      <point x="1284" y="766"/>
      <point x="1284" y="713" type="curve" smooth="yes"/>
      <point x="1284" y="655"/>
      <point x="1249" y="588"/>
      <point x="1194" y="539" type="curve"/>
      <point x="1151" y="584"/>
      <point x="1117" y="630"/>
      <point x="1117" y="688" type="curve" smooth="yes"/>
    </contour>
  </outline>
</glyph>
<glyph name="partialdiff" format="1">
  <advance width="1223"/>
  <unicode hex="2202"/>
  <outline>
    <contour>
      <point x="367" y="911"/>
      <point x="84" y="655"/>
      <point x="84" y="340" type="curve" smooth="yes"/>
      <point x="84" y="121"/>
      <point x="219" y="-12"/>
      <point x="444" y="-12" type="curve" smooth="yes"/>
      <point x="844" y="-12"/>
      <point x="1221" y="522"/>
      <point x="1221" y="1092" type="curve" smooth="yes"/>
      <point x="1221" y="1389"/>
      <point x="1081" y="1563"/>
      <point x="844" y="1563" type="curve" smooth="yes"/>
      <point x="705" y="1563"/>
      <point x="565" y="1505"/>
      <point x="465" y="1405" type="curve"/>
      <point x="539" y="1290" type="line"/>
      <point x="596" y="1356"/>
      <point x="696" y="1399"/>
      <point x="795" y="1399" type="curve" smooth="yes"/>
      <point x="958" y="1399"/>
      <point x="1049" y="1278"/>
      <point x="1049" y="1059" type="curve" smooth="yes"/>
      <point x="1049" y="970"/>
      <point x="1038" y="882"/>
      <point x="1020" y="798" type="curve"/>
      <point x="915" y="880"/>
      <point x="828" y="911"/>
      <point x="713" y="911" type="curve" smooth="yes"/>
    </contour>
    <contour>
      <point x="346" y="152"/>
      <point x="254" y="244"/>
      <point x="254" y="393" type="curve" smooth="yes"/>
      <point x="254" y="600"/>
      <point x="434" y="748"/>
      <point x="686" y="748" type="curve" smooth="yes"/>
      <point x="796" y="748"/>
      <point x="899" y="719"/>
      <point x="984" y="665" type="curve"/>
      <point x="886" y="373"/>
      <point x="690" y="152"/>
      <point x="492" y="152" type="curve" smooth="yes"/>
    </contour>
  </outline>
</glyph>
<glyph name="uni2215" format="1">
  <advance width="999"/>
  <unicode hex="2215"/>
  <outline>
    <contour>
      <point x="999" y="1540" type="line"/>
      <point x="852" y="1540" type="line"/>
      <point x="0" y="0" type="line"/>
      <point x="147" y="0" type="line"/>
    </contour>
  </outline>
</glyph>
<glyph name="maiTho-thai.narrow" format="1">
  <advance width="0"/>
  <outline>
    <contour>
      <point x="-273" y="1342" type="line"/>
      <point x="-242" y="1484" type="line"/>
      <point x="-552" y="1484" type="line"/>
      <point x="-537" y="1552" type="line" smooth="yes"/>
      <point x="-535" y="1562"/>
      <point x="-533" y="1570"/>
      <point x="-533" y="1578" type="curve" smooth="yes"/>
      <point x="-533" y="1617"/>
      <point x="-565" y="1635"/>
      <point x="-622" y="1635" type="curve" smooth="yes"/>
      <point x="-848" y="1635" type="line"/>
      <point x="-868" y="1535" type="line"/>
      <point x="-767" y="1535" type="line"/>
      <point x="-787" y="1444" type="line" smooth="yes"/>
      <point x="-790" y="1430"/>
      <point x="-791" y="1417"/>
      <point x="-791" y="1406" type="curve" smooth="yes"/>
      <point x="-791" y="1349"/>
      <point x="-752" y="1342"/>
      <point x="-695" y="1342" type="curve" smooth="yes"/>
    </contour>
    <contour>
      <point x="-351" y="1372" type="move" name="top"/>
    </contour>
    <contour>
      <point x="-396" y="919" type="move" name="_top"/>
    </contour>
  </outline>
</glyph>
<glyph name="saraUe-thai.narrow" format="1">
  <advance width="0"/>
  <outline>
    <contour>
      <point x="-395" y="1342" type="line" smooth="yes"/>
      <point x="-305" y="1342"/>
      <point x="-233" y="1416"/>
      <point x="-233" y="1506" type="curve" smooth="yes"/>
      <point x="-233" y="1596"/>
      <point x="-305" y="1668"/>
      <point x="-395" y="1668" type="curve" smooth="yes"/>
      <point x="-485" y="1668"/>
      <point x="-559" y="1596"/>
      <point x="-559" y="1506" type="curve" smooth="yes"/>
      <point x="-559" y="1498"/>
      <point x="-558" y="1491"/>
      <point x="-557" y="1484" type="curve"/>
      <point x="-913" y="1484" type="line"/>
      <point x="-943" y="1342" type="line"/>
    </contour>
    <contour>
      <point x="-318" y="1342" type="move" name="top"/>
    </contour>
    <contour>
      <point x="-376" y="919" type="move" name="_top"/>
    </contour>
  </outline>
</glyph>
<glyph name="thanthakhat-thai.narrow" format="1">
  <advance width="0"/>
  <outline>
    <contour>
      <point x="-215" y="1586" type="line"/>
      <point x="-467" y="1586" type="line" smooth="yes"/>
      <point x="-573" y="1586"/>
      <point x="-654" y="1564"/>
      <point x="-673" y="1467" type="curve" smooth="yes"/>
      <point x="-698" y="1342" type="line"/>
      <point x="-432" y="1342" type="line"/>
      <point x="-414" y="1429" type="line" smooth="yes"/>
      <point x="-405" y="1473"/>
      <point x="-357" y="1478"/>
      <point x="-339" y="1478" type="curve" smooth="yes"/>
      <point x="-238" y="1478" type="line"/>
    </contour>
    <contour>
      <point x="-330" y="1304" type="move" name="top"/>
    </contour>
    <contour>
      <point x="-401" y="919" type="move" name="_top"/>
    </contour>
  </outline>
</glyph>
<glyph name="thanthakhat-thai.small" format="1">
  <advance width="0"/>
  <outline>
    <contour>
      <point x="273" y="1964" type="line"/>
      <point x="-31" y="1964" type="line" smooth="yes"/>
      <point x="-137" y="1964"/>
      <point x="-217" y="1942"/>
      <point x="-236" y="1845" type="curve" smooth="yes"/>
      <point x="-261" y="1720" type="line"/>
      <point x="4" y="1720" type="line"/>
      <point x="22" y="1807" type="line" smooth="yes"/>
      <point x="31" y="1851"/>
      <point x="79" y="1856"/>
      <point x="97" y="1856" type="curve" smooth="yes"/>
      <point x="250" y="1856" type="line"/>
    </contour>
    <contour>
      <point x="98" y="1632" type="move" name="top"/>
    </contour>
    <contour>
      <point x="50" y="1343" type="move" name="_top"/>
    </contour>
  </outline>
</glyph>
<glyph name="yoYing-thai.less" format="1">
  <advance width="1578"/>
  <outline>
    <contour>
      <point x="1608" y="1178" type="line"/>
      <point x="1313" y="1178" type="line"/>
      <point x="1120" y="274" type="line" smooth="yes"/>
      <point x="1086" y="114"/>
      <point x="1038" y="69"/>
      <point x="952" y="69" type="curve" smooth="yes"/>
      <point x="894" y="69"/>
      <point x="868" y="102"/>
      <point x="868" y="166" type="curve" smooth="yes"/>
      <point x="868" y="190"/>
      <point x="871" y="217"/>
      <point x="878" y="249" type="curve" smooth="yes"/>
      <point x="996" y="803" type="line" smooth="yes"/>
      <point x="1007" y="853"/>
      <point x="1013" y="899"/>
      <point x="1013" y="941" type="curve" smooth="yes"/>
      <point x="1013" y="1091"/>
      <point x="932" y="1188"/>
      <point x="654" y="1188" type="curve" smooth="yes"/>
      <point x="465" y="1188"/>
      <point x="307" y="1130"/>
      <point x="158" y="1042" type="curve"/>
      <point x="154" y="1024" type="line"/>
      <point x="169" y="992"/>
      <point x="177" y="952"/>
      <point x="177" y="910" type="curve" smooth="yes"/>
      <point x="177" y="888"/>
      <point x="175" y="866"/>
      <point x="170" y="844" type="curve" smooth="yes"/>
      <point x="51" y="285" type="line" smooth="yes"/>
      <point x="44" y="251"/>
      <point x="40" y="219"/>
      <point x="40" y="190" type="curve" smooth="yes"/>
      <point x="40" y="49"/>
      <point x="124" y="-27"/>
      <point x="271" y="-27" type="curve" smooth="yes"/>
      <point x="365" y="-27"/>
      <point x="430" y="-12"/>
      <point x="473" y="4" type="curve"/>
      <point x="498" y="118" type="line"/>
      <point x="476" y="108"/>
      <point x="437" y="98"/>
      <point x="396" y="98" type="curve" smooth="yes"/>
      <point x="348" y="98"/>
      <point x="328" y="121"/>
      <point x="328" y="166" type="curve" smooth="yes"/>
      <point x="328" y="183"/>
      <point x="331" y="202"/>
      <point x="336" y="225" type="curve" smooth="yes"/>
      <point x="459" y="811" type="line" smooth="yes"/>
      <point x="464" y="836"/>
      <point x="467" y="861"/>
      <point x="467" y="884" type="curve" smooth="yes"/>
      <point x="467" y="944"/>
      <point x="450" y="996"/>
      <point x="420" y="1040" type="curve"/>
      <point x="424" y="1059" type="line"/>
      <point x="475" y="1077"/>
      <point x="531" y="1092"/>
      <point x="613" y="1092" type="curve" smooth="yes"/>
      <point x="689" y="1092"/>
      <point x="727" y="1052"/>
      <point x="727" y="968" type="curve" smooth="yes"/>
      <point x="727" y="943"/>
      <point x="724" y="914"/>
      <point x="717" y="881" type="curve" smooth="yes"/>
      <point x="606" y="358" type="line" smooth="yes"/>
      <point x="596" y="313"/>
      <point x="591" y="271"/>
      <point x="591" y="232" type="curve" smooth="yes"/>
      <point x="591" y="76"/>
      <point x="678" y="-27"/>
      <point x="944" y="-27" type="curve" smooth="yes"/>
      <point x="1222" y="-27"/>
      <point x="1375" y="81"/>
      <point x="1417" y="280" type="curve" smooth="yes"/>
    </contour>
  </outline>
</glyph>
